<?xml version="1.0" ?>
<!DOCTYPE svg  PUBLIC '-//W3C//DTD SVG 1.1//EN'  'http://www.w3.org/Graphics/SVG/1.1/DTD/svg11.dtd'>
<!-- Uploaded to: SVG Repo, www.svgrepo.com, Generator: SVG Repo Mixer Tools -->
<svg fill="#000000" width="800px" height="800px" viewBox="0 0 32 32" enable-background="new 0 0 32 32" version="1.1" xml:space="preserve" xmlns="http://www.w3.org/2000/svg" xmlns:xlink="http://www.w3.org/1999/xlink">
<g id="play"/>
<g id="stop"/>
<g id="pause"/>
<g id="replay"/>
<g id="next"/>
<g id="Layer_8"/>
<g id="search"/>
<g id="list"/>
<g id="love"/>
<g id="menu"/>
<g id="add"/>
<g id="headset"/>
<g id="random"/>
<g id="music">
<g>
<path d="M9,22.347c0,0.55-0.443,1.1-0.98,1.221l-3.042,0.69C4.44,24.379,4,24.929,4,25.479V28c0,0.55,0.433,0.877,0.962,0.728    l6.069-1.716C11.561,26.862,12,26.289,12,25.739V11.913c0-0.55,0.437-1.077,0.979-1.171L24,8.823c0.542-0.094,1,0.279,1,0.829    v12.695c0,0.55-0.457,1.1-0.994,1.221l-3.035,0.69C20.434,24.379,20,24.929,20,25.479V28c0,0.55,0.418,0.877,0.947,0.728    l6.077-1.716C27.554,26.862,28,26.289,28,25.739V4c0-0.55-0.465-0.921-1.006-0.824L9.99,6.215C9.449,6.312,9,6.841,9,7.391V22.347    z"/>
<path d="M20.697,29.764C19.729,29.764,19,29.006,19,28v-2.521c0-1.027,0.753-1.972,1.751-2.196l3.033-0.689    c0.093-0.021,0.215-0.173,0.216-0.246V9.837l-10.85,1.889c-0.058,0.01-0.15,0.115-0.15,0.186v13.827    c0,1.001-0.729,1.962-1.697,2.234l-6.068,1.716c-0.174,0.05-0.35,0.074-0.523,0.074l0,0C3.735,29.764,3,29.006,3,28v-2.521    c0-1.01,0.772-1.974,1.758-2.196l3.04-0.69C7.882,22.573,8,22.429,8,22.347V7.391c0-1.029,0.797-1.979,1.814-2.16l17.004-3.04    C28.009,1.974,29,2.855,29,4v21.739c0,1-0.732,1.961-1.704,2.234l-6.077,1.716C21.046,29.739,20.87,29.764,20.697,29.764z     M27,4.19L10.166,7.2C10.096,7.212,10,7.333,10,7.391v14.956c0,1.009-0.773,1.974-1.761,2.196l-3.04,0.69    C5.116,25.252,5,25.396,5,25.479v2.203l5.759-1.632c0.1-0.028,0.241-0.211,0.241-0.311V11.913c0-1.033,0.794-1.98,1.808-2.157    l11.021-1.918C25.028,7.629,26,8.508,26,9.652v12.695c0,1.007-0.779,1.972-1.774,2.196l-3.033,0.689    C21.112,25.251,21,25.396,21,25.479v2.195l5.753-1.624C26.862,26.019,27,25.83,27,25.739V4.19z"/>
</g>
</g>
<g id="setting"/>
<g id="Layer_17"/>
<g id="Layer_18"/>
<g id="Layer_19"/>
<g id="Layer_20"/>
<g id="Layer_21"/>
<g id="Layer_22"/>
<g id="Layer_23"/>
<g id="Layer_24"/>
<g id="Layer_25"/>
<g id="Layer_26"/>
</svg>